# xmcd CD database file
#
# Track frame offsets:
#	150
#	36143
#	66222
#	91283
#	114869
#	147337
#	168529
#	193807
#	212641
#	245801
#
# Disc length: 3609 seconds
#
# Revision: 0
# Processed by: cddbd v1.5.2PL0 Copyright (c) Steve Scherf et al.
# Submitted via: CDex 1.70beta2
#
DISCID=910e170a
DTITLE=Tohoati Bertiga - Riot
DYEAR=2011
DGENRE=Jazz
TTITLE0=Upload
TTITLE1=I Feel Great
TTITLE2=Riot
TTITLE3=Middle East
TTITLE4=Pay Attention
TTITLE5=Rock Camp
TTITLE6=Absurd
TTITLE7=Disco Robot
TTITLE8=Lost In Space
TTITLE9=Bertiga
EXTD=YEAR: 2011
EXTT0=
EXTT1=
EXTT2=
EXTT3=
EXTT4=
EXTT5=
EXTT6=
EXTT7=
EXTT8=
EXTT9=
PLAYORDER=
